<svg xmlns="http://www.w3.org/2000/svg" xmlns:xlink="http://www.w3.org/1999/xlink" viewBox="0 0 256 256" width="150px" height="150px">
  <defs>
    <!-- Purple gradient matching the new CSS colors -->
    <linearGradient id="purpleGradient" x1="0%" y1="0%" x2="100%" y2="100%">
      <stop offset="0%" style="stop-color:#a855f7;stop-opacity:1" />
      <stop offset="50%" style="stop-color:#c084fc;stop-opacity:1" />
      <stop offset="100%" style="stop-color:#a855f7;stop-opacity:1" />
    </linearGradient>
    
    <!-- Shadow filter -->
    <filter id="shadowFilter" x="-50%" y="-50%" width="200%" height="200%">
      <feGaussianBlur in="SourceAlpha" stdDeviation="4"/>
      <feOffset dx="0" dy="4" result="offset"/>
      <feFlood flood-color="#a855f7" flood-opacity="0.3"/>
      <feComposite in2="offset" operator="in"/>
      <feMerge> 
        <feMergeNode/>
        <feMergeNode in="SourceGraphic"/> 
      </feMerge>
    </filter>
    
    <!-- Glow effect -->
    <filter id="glow" x="-50%" y="-50%" width="200%" height="200%">
      <feGaussianBlur stdDeviation="2" result="coloredBlur"/>
      <feMerge> 
        <feMergeNode in="coloredBlur"/>
        <feMergeNode in="SourceGraphic"/> 
      </feMerge>
    </filter>
  </defs>
  
  <g stroke="url(#purpleGradient)" stroke-width="12" stroke-linecap="round" stroke-linejoin="round" fill="none" filter="url(#shadowFilter)">
    <!-- Outer hexagon - bigger and perfectly centered around (128,128) -->
    <path d="M128 48 L192 80 L192 176 L128 208 L64 176 L64 80 Z"/>
    
    <!-- Inner cube structure -->
    <path d="M128 80 L160 104 L160 152 L128 176 L96 152 L96 104 Z"/>
    
    <!-- Connecting lines to create 3D effect -->
    <path d="M128 48 L128 80"/>
    <path d="M192 80 L160 104"/>
    <path d="M192 176 L160 152"/>
    <path d="M128 208 L128 176"/>
    <path d="M64 176 L96 152"/>
    <path d="M64 80 L96 104"/>
    
    <!-- Inner connecting lines -->
    <path d="M128 80 L128 128"/>
    <path d="M160 104 L128 128"/>
    <path d="M96 104 L128 128"/>
    <path d="M128 176 L128 128"/>
    <path d="M160 152 L128 128"/>
    <path d="M96 152 L128 128"/>
  </g>
  
  <!-- Core center point with glow -->
  <circle cx="128" cy="128" r="8" fill="url(#purpleGradient)" filter="url(#glow)"/>
</svg>